<svg xmlns="http://www.w3.org/2000/svg" version="1.1" x="0" y="0" width="300" height="138" viewBox="0 0 300 138"><path d="M173.6 59.6C174.1 59.7 174.6 59.7 175.1 59.7 175.6 59.8 176.1 59.8 176.7 59.9 177.3 60 177.8 60.1 178.2 60.3 178.5 60.4 178.8 60.6 179.2 60.7 179.5 60.9 179.9 61 180.2 61.1 180.5 61.3 180.8 61.5 181 61.7 181.5 62.4 181.7 63.2 181.7 64.1 181.4 64.9 181.4 65.5 181.7 66.1 181.7 66.2 181.8 66.3 181.7 66.3 181.7 66.4 181.7 66.5 181.7 66.6 181.6 66.7 181.6 67 181.6 67.3 181.7 67.6 181.7 68 181.6 68.3 181.5 68.6 181.4 69 181.3 69.3 181.1 69.7 181 70.2 181 70.7 181 71.1 180.9 71.6 180.8 72.1 180.5 73.1 180.1 74.1 179.7 75.1 179.2 76.2 178.7 77.4 178.1 78.4 177.5 79.5 177 80.6 176.6 81.7 176.2 83 175.8 84.2 175.6 85.4 175.3 86.6 175.1 87.8 174.9 89 174.4 91.3 173.9 93.7 173.4 96.1 172.9 98.4 172.6 100.8 172.5 103.1 172.5 103.6 172.5 104 172.5 104.4 172.6 104.9 172.5 105.3 172.4 105.8 172 107 172 108.2 172.4 109.5 172.7 110.8 173.4 111.8 174.4 112.5 174.6 112.6 174.9 112.6 175.2 112.5 175.6 112.2 175.8 112 175.9 111.9 176.8 111.1 177.5 110.2 177.9 109.5 178.1 109.2 178.2 109 178.4 108.8 178.5 108.6 178.6 108.4 178.8 108.2 179.8 106.7 180.7 105.1 181.4 103.4 182.1 101.8 183 100.2 184 98.7 185.3 96.8 186.4 94.9 187.3 92.9 188.1 90.9 189.1 88.9 190.2 86.9 190.7 86.2 191.2 85.4 191.6 84.7L191.8 84.4 191.8 78.6C191.8 77.4 191.7 76.2 191.6 75L191 71C190.8 70.2 190.8 69.4 191 68.7 191.1 68 191.3 67.2 191.4 66.4 191.5 66 191.8 65.8 192.4 65.8L194.3 66.1C194.9 66.2 195.4 66.4 195.8 66.8 196.2 67.2 196.6 67.6 197 68.1 197.1 68.3 197.2 68.5 197.4 68.7 197.6 68.9 197.8 69 198 69.2 198.4 69.7 198.9 70.1 199.4 70.4 199.8 70.8 200.3 71.2 200.8 71.7 201.3 72.2 201.6 72.8 201.9 73.4 202.2 74 202.4 74.6 202.7 75.3 202.7 75.5 202.8 75.8 203 76.2 203 76.2 203.1 76.3 203.2 76.3 203.5 75.8 203.7 75.3 204 74.8 204.2 74.3 204.4 73.8 204.7 73.4 206 70.9 207.5 68.8 209.2 67 210.1 66.1 211 65.4 212 64.7 213.1 64 214.2 63.6 215.4 63.3 216.9 63 218.3 63.2 219.6 64 220.9 64.7 221.9 65.8 222.4 67.3 222.9 68.5 223.2 69.8 223.5 71.1 223.7 72.4 223.9 73.6 224.1 74.9 224.3 75.5 224.3 76 224.3 76.6 224.2 77.2 224.2 77.7 224.2 78.3 224.2 78.9 224.3 79.5 224.3 80 224.4 80.6 224.4 81.1 224.3 81.7 224.3 82.7 224.3 83.8 224.3 85 224.2 86.3 224.2 87.5 224.1 88.5 224.3 88.4 224.5 88.3 224.7 88.2 224.9 88.1 225 88 225.1 87.9 225.7 87.4 226.5 86.8 227.5 86.2 228.5 85.5 229.5 84.9 230.6 84.3 231.7 83.7 232.7 83.1 233.7 82.5 234.7 81.9 235.6 81.5 236.2 81.1 236.7 80.9 237.1 80.5 237.6 80.2 238 79.8 238.5 79.7 239 79.8 238.9 80 238.9 80.1 239 80.3 239.1 80.5 239.1 80.6 239.1 80.6 238.5 80.9 238.1 81.3 237.9 81.7 237.7 82.1 237.1 82.5 236.2 83 235.9 83.5 235.3 84.1 234.5 84.7 233.6 85.3 232.8 86 231.9 86.6 231 87.2 230.1 87.8 229.2 88.4 228.4 88.9 227.7 89.4 227.2 89.9 226.7 90.3 226.2 90.7 225.6 91.2 225.1 91.6 224.6 92.1 224.1 92.6 223.6 93.1 223.2 93.7 223.1 94.6 222.7 95.6 222.5 96.6 222.4 97.6 222.2 98.6 221.8 99.6 221.2 100.4 220.9 100.9 220.7 101.4 220.6 101.9 220.4 102.4 220.2 102.9 219.9 103.3 219.7 103.7 219.5 104.1 219.3 104.4 219.1 104.7 218.7 105 218.2 105.1 217.8 105.6 217.3 106 216.6 106.3 215.9 106.6 215.5 107.1 215.2 107.9 214.9 108.1 214.6 108.5 214.3 108.8 214.1 109.2 213.7 109.4 213.2 109.5 213.1 109.5 213 109.6 213 109.6 213 109.7 212.9 109.8 212.8 109.8 212.7 110.1 212.5 110.3 212.3 110.5 212.1 110.6 212 110.9 211.9 111.1 211.1 110.8 210.5 110.4 210 110 209.4 109.6 208.9 109.1 208.4 108.6 208 108.3 207.8 108 207.8 107.5 207.7 107.1 207.7 106.7 207.9 106.3 208.2 103.6 209.2 101.4 210.9 99.7 212.3 98.4 213 96.9 213 95.1 213.2 94.1 213.4 92.9 213.6 91.8 213.8 90.7 214 89.6 214.1 88.5 214.3 87.2 214.3 85.8 214.4 84.5 214.4 83.2 214.5 81.9 214.6 80.6 214.7 78.6 214.8 76.7 214.9 74.9 215 73 215.1 71.1 215.2 69.2L215.2 68.1C215.2 67.7 215.1 67.3 215 67 214.4 67.1 213.9 67.3 213.5 67.6 213.2 67.8 212.8 68.2 212.5 68.5 211.5 69.7 210.5 71 209.7 72.4 208.9 73.8 208.2 75.2 207.6 76.6 207.3 77.4 206.9 78.1 206.5 78.8 206.1 79.6 205.7 80.3 205.2 81 204.8 81.7 204.4 82.5 204.1 83.2 203.8 83.9 203.6 84.7 203.5 85.5 203.3 86.9 203.2 88.3 203 89.6 202.8 91 202.6 92.4 202.3 93.7 202.2 94.2 202.1 94.8 202.1 95.4 202.1 96 202 96.5 202 97.1L201.1 101.4C201.4 102.7 201.4 103.8 201.2 104.9 201 106 200.7 107.1 200.2 108.4 200 109.6 200 110.8 200.1 112.1 200.3 113.3 200.4 114.5 200.3 115.7 200.3 116.2 200.2 116.6 200.2 116.9 200.2 117.3 200.1 117.7 200 118.1 199.9 119.1 199.8 120.2 199.9 121.3L199.9 126.5C199.9 127.1 199.8 127.7 199.8 128.4 199.8 128.7 199.7 129 199.6 129.4 199.5 129.7 199.5 130.1 199.4 130.4 199.3 130.3 199.3 130.2 199.3 130.1 199.3 130.1 199.3 130 199.1 129.9 199 130.3 198.9 130.7 198.8 131.1 198.7 131.4 198.5 131.8 198.4 132.1 198.2 132.4 198.2 132.5 198.2 132.5 197.7 132.8 197.5 133.2 197.5 133.6 197.4 134 197.3 134.4 197.2 134.9 197.2 135.2 197.1 135.5 197 135.7 196.9 135.9 196.7 136.1 196.3 136.2 196.2 136.2 196.1 136.3 196.1 136.4 196.1 136.5 196 136.6 195.9 136.7 195.1 137.6 194.2 137.6 193.3 136.8 193.1 136.6 192.8 136.3 192.6 136.1 192.4 135.9 192.2 135.6 192 135.3 191.9 135.2 191.9 135.1 191.9 135 191.9 134.3 192 133.7 192 133.1 192 132.5 192 131.8 192 131.1 192.1 130.3 192.2 129.4 192.2 128.6 192.3 127.7 192.3 126.8 192.3 126 192.4 123.6 192.4 121.2 192.3 118.8L192 106.4 192 99.3C192 97.8 191.9 96.3 191.9 94.8 191.8 93.3 191.8 91.8 191.8 90.2 190.8 92.2 191.3 91.2 190.1 93.2 189.6 94.1 189.3 95 189.1 96 188.9 96.9 188.5 97.9 187.9 98.7 187.4 99.4 187 100.1 186.9 100.8 186.7 101.5 186.4 102.3 186.1 103 186 103.3 185.9 103.7 185.7 104.1 185.6 104.4 185.4 104.8 185.1 105.1 184.6 105.7 184.2 106.4 183.8 107.1 183.4 107.8 183.1 108.5 182.8 109.3 182.5 109.9 182.1 110.5 181.7 111.1 181.3 111.6 180.8 112.1 180.1 112.6 179.5 113 178.8 113.6 178.3 114.1 177.7 114.7 177 115.2 176.1 115.5 176 115.5 175.9 115.5 175.9 115.5 175.9 115.5 175.8 115.6 175.7 115.6 173.9 115.7 172.3 115.5 170.7 114.9 169.6 114.6 168.7 114 167.9 113.1 167.2 112.3 166.7 111.5 166.3 110.6 165.9 109.7 165.5 108.8 165.2 107.8 165.2 107.6 165.1 107.3 165.1 107.1 165.1 106.8 165.1 106.6 165 106.3 164.9 105.7 164.8 105.2 164.8 104.6 164.8 104 164.7 103.4 164.6 102.8L164.6 102.4C164.6 101.5 164.6 100.6 164.5 99.7 164.5 98.7 164.5 97.8 164.6 96.9 164.8 92.7 165.5 88.6 166.7 84.7 167.9 80.7 169.2 76.8 170.7 72.9 171 72 171.4 71.1 171.7 70.2 172.1 69.3 172.4 68.5 172.8 67.6 173 67 173.2 66.3 173.3 65.6 173.4 64.9 173.6 64.3 173.8 63.6 173.6 63.5 173.5 63.5 173.3 63.5 173 63.6 172.8 63.7 172.8 63.8 170.9 65.3 169.2 66.9 167.6 68.7 166 70.4 164.3 72.1 162.6 73.6 161.4 74.7 160.5 75.8 159.8 77.1 159 78.5 158.3 79.8 157.7 81.1 156.8 82.5 156 83.9 155.2 85.3 154.4 86.8 153.6 88.2 152.7 89.6 152.5 89.7 152.4 89.9 152.3 90.1 152 90.8 151.7 91.4 151.4 92 151 92.7 150.7 93.3 150.5 94 150.4 94.1 150.4 94.2 150.3 94.3 150.2 94.4 150.2 94.6 150.1 94.7 149.9 95 149.8 95.3 149.6 95.6 149.4 96 149.2 96.3 149.1 96.7 149 97.2 148.9 97.6 148.9 98 148.9 98.2 148.8 98.4 148.8 98.6 148.7 98.8 148.7 99 148.7 99.2L148.7 100.1C148.4 100.2 148.2 100.2 147.9 100.1 147.6 100 147.3 100.1 147 100.4 147.1 100.6 147.1 100.7 147.1 100.8 147.1 100.9 147.2 101.1 147.2 101.3 147 101.3 146.8 101.3 146.7 101.3 146.3 101.3 146 101.2 145.8 101 145.6 100.9 145.4 100.7 145.2 100.6 145 100.5 144.8 100.4 144.6 100.2 144 100 143.5 99.5 143.1 98.6 142.8 97.5 142.6 96.2 142.6 95 142.5 93.7 142.6 92.6 142.7 91.5 142.9 90.3 143.1 89.2 143.4 87.9 143.5 87.6 143.5 87.3 143.6 87 143.7 86.7 143.8 86.3 143.9 86 144.5 84.2 145 82.4 145.6 80.6 146.1 78.8 146.6 77 147.1 75.2 147.2 75.1 147.2 75 147.2 74.9 147.2 74.9 147.2 74.8 147.3 74.6 147.6 73.8 147.9 72.9 148.1 72 148.3 71.1 148.5 70.2 148.6 69.4 148.6 69 148.7 68.8 148.8 68.5 148.8 68.3 148.8 68 148.7 67.7 148.5 67.9 148.4 68 148.4 67.9 148.2 68.1 148 68.3 147.8 68.7 147.6 69.1 147.3 69.5 146.8 69.7 146.1 70.2 145.4 71 144.8 72 144.2 73.1 143.7 74 143.1 74.6 142.5 75.5 141.8 76.5 141.2 77.4 140.6 78.3 140.1 79.3 139.6 80.3 139.1 81.3 138.7 82.3 138.3 83.3 137.9 84.3 137.4 85.3 136.8 86.3 136.4 87 136.1 87.8 135.8 88.5 135.5 89.3 135.1 90.1 134.8 90.9 134.8 91 134.7 91.2 134.7 91.4 134.6 91.6 134.6 91.7 134.6 91.9 134.6 92.5 134.5 93 134.2 93.5 134 93.9 133.7 94.4 133.5 94.9 133.4 95.2 133.2 95.5 133 95.7 132.8 96 132.7 96.3 132.6 96.6 132.3 97.2 131.9 97.7 131.5 98.2 131 98.5 130.6 98.9 130.2 99.4 130 99.7 129.7 100 129.4 100.2 129.2 100.4 128.9 100.6 128.6 100.8 128.2 101.1 127.8 101.1 127.5 100.8 127.4 100.7 127.3 100.7 127.2 100.7 127.1 100.6 127 100.6 126.8 100.5 126.5 100.5 126.2 100.4 125.9 100.1 125.7 99.8 125.4 99.7 125 99.7L124.8 99.7C124.2 99.6 123.7 99.4 123.4 99 123.2 98.5 123 98.1 122.9 97.6L122.9 95.4C122.9 94.4 122.9 93.4 123 92.5 123 91.5 123 90.5 123 89.5L123.1 88.7 122.9 89.1C122.3 90.5 121.7 92 120.9 93.6 120.2 95.1 119.4 96.6 118.4 98.1 117.5 99.5 116.4 100.8 115.2 102 114.1 103.1 112.7 104 111.2 104.5 110.5 104.8 109.6 104.8 108.5 104.7 107.4 104.6 106.5 104.3 105.9 103.7 105.6 103.5 105.3 103.1 105.1 102.7 104.5 101.7 104.1 100.7 104 99.7 103.9 98.6 103.9 97.5 103.9 96.4 104 95.6 104 94.7 104.1 93.9 104.2 93 104.3 92.2 104.4 91.3L104.4 90.5C104.3 90.6 104.1 90.7 104 90.8 103.9 90.9 103.8 91 103.7 91.1 103.1 91.6 102.5 92.1 101.9 92.5 101.2 92.9 100.5 93.1 99.7 93.1 99.1 93.2 98.6 93.3 98.1 93.5 97.5 93.6 97 93.7 96.5 93.8 95.4 93.8 94.5 93.7 93.6 93.4 92.7 93.1 91.9 92.5 91.2 91.5 90.5 90.3 90.8 90.9 90.3 89.6 90.1 89.9 90.3 89.7 90 90.1 89.8 90.4 89.7 90.6 89.5 91 89.4 91.1 89.3 91.2 89.2 91.3 88.8 91.6 88.5 91.9 88.3 92.2 88 92.6 87.8 92.9 87.5 93.2L87.4 93.3C87 94.1 86.4 94.7 85.8 95.1 85.2 95.6 84.6 96.2 84 96.8L83.2 97.9C82.7 98.5 82.2 99.2 81.7 99.7 81.1 100.3 80.5 100.8 79.7 101.3 78.9 101.8 78 102.3 77.1 102.8 76.3 103.3 75.3 103.7 74.3 104 73.5 104.2 72.7 104.5 71.9 104.7 71.1 104.9 70.3 105.1 69.5 105.2 68.9 105.2 68.4 105.1 68.1 105 67.6 104.7 67.3 104.6 67 104.5 66.1 104.1 65.3 103.5 64.6 102.8 64.3 102.4 64.2 102.2 64.1 102.2 63.5 101.6 63 101 62.7 100.3 62.4 99.7 62.2 99 61.9 98.2L61.7 97.9C61.6 97.2 61.7 97.5 61.5 97 61.3 96.4 61.2 95.7 61.2 95 61.1 94.2 61.1 93.5 61.1 92.8L61.1 90.7C61 90.1 60.9 89.5 61 89 61.1 88.5 61.1 88 61.2 87.5 61.3 87.2 61.4 86.9 61.4 86.5 61.4 86.1 61.4 85.8 61.5 85.5 61.5 84.6 61.6 83.6 61.7 82.6 61.9 81.5 62.1 80.4 62.4 79.4 62.7 78.3 62.9 77.3 63 76.2 63.1 76.1 63.1 76 63.1 76 63.1 75.9 63.1 75.9 63.2 75.7 63.3 75.2 63.4 74.7 63.6 74.2 63.8 73.6 63.9 73.1 64.2 72.6 64.4 72.1 64.7 71.5 64.9 71 65.2 70.4 65.4 69.9 65.6 69.4 65.9 69 66.1 68.5 66.3 68.2 66.5 67.8 66.8 67.4 67 67 67.1 66.7 67.2 66.6 67.2 66.5 67.5 66 67.8 65.6 68.2 65.3 68.6 65 69 64.6 69.5 64.3 70.1 64 70.6 63.8 71.2 63.5 71.7 63.3 72.3 63 72.9 62.8 73.2 62.7 73.5 62.6 73.9 62.5 74.2 62.5 74.6 62.4 74.9 62.2 75.2 62.2 75.6 62.1 75.9 62.1 76.3 62.1 76.6 62 76.9 62 77.2 61.9 77.5 61.9 78 61.9 79 61.8 79.9 61.8 80.7 62.1 81.6 62.3 82.4 62.6 83.3 63.1 83.4 63.1 83.5 63.2 83.7 63.3 83.8 63.4 84 63.5 84.1 63.6 84.4 63.8 84.6 64.1 84.6 64.4 84.6 64.6 84.7 64.8 84.7 65 84.8 65.2 84.9 65.3 84.9 65.5 85 65.8 85.2 66.1 85.2 66.4 85.3 66.7 85.3 67.1 85.3 67.4 85.2 67.6 85.2 67.7 85.3 67.9 85.3 68.4 85.2 68.8 85.1 69.2 84.9 69.6 84.7 70 84.6 70.4 84.3 70.7 83.9 71 83.4 71.1 82.9 71.3 82.5 71.3 82.2 71.2 82 71.1 81.9 70.9 81.9 70.7 82 70.4 82 70.1 82 69.8 82 69.5 82.1 69.2 82.2 68.9 82.3 68.5 82.3 68.2 82.3 67.8 82.2 67.5 82.2 67.2 82.1 66.8 82.1 66.5 82 66.2 81.7 65.9 81.5 65.8 81.3 65.6 81.1 65.5 80.9 65.3 80.7 65.2 80.4 65.1L79.9 64.9C79.1 64.5 79.4 64.7 78.8 64.3 78.5 64.2 78.2 64.2 77.9 64.3 77.7 64.5 77.5 64.7 77.2 64.8 77 65 76.8 65.2 76.6 65.3 76.3 65.5 76.1 65.7 76 66 75.6 67 75.1 68 74.4 68.8 73.8 69.5 73.3 70.3 73.1 71.2 73 71.7 72.8 72.1 72.6 72.5 72.5 72.9 72.3 73.3 72.2 73.8 72.1 74.1 72 74.3 72 74.5 71.9 75.1 71.8 75.7 71.6 76.2 71.5 76.8 71.3 77.4 71.1 78 71 78.4 70.9 78.8 70.7 79.1 70.6 79.5 70.5 80 70.5 80.4 70.5 80.5 70.4 80.7 70.4 80.8 70.3 81 70.3 81.2 70.2 81.3 69.9 82.1 69.7 83 69.6 83.9 69.5 84.4 69.4 84.9 69.3 85.3 69.2 85.8 69.1 86.3 69 86.8 68.9 86.8 68.9 86.9 68.9 87.1 68.9 87.8 68.8 88.4 68.8 89 68.8 89.6 68.7 90.3 68.7 90.9 68.7 91.2 68.7 91.6 68.8 92L68.8 92.5C68.7 92.9 68.7 93.2 68.8 93.6 68.9 94 68.9 94.3 68.9 94.7L68.9 95.7C68.8 96.4 68.9 97.1 69.1 97.6 69.2 97.8 69.3 98 69.3 98.2 69.4 98.4 69.4 98.6 69.6 98.9 69.6 99.1 69.7 99.4 69.7 99.6 69.8 99.9 69.9 100.1 70 100.4 70.2 100.9 70.5 101.3 70.8 101.6 71.4 102.1 72 102.2 72.6 102 72.9 101.9 73.2 101.8 73.4 101.8 74.2 101.7 74.9 101.5 75.6 101.2 76.4 100.9 77.1 100.5 77.8 100.1 78.1 99.9 78.4 99.7 78.6 99.4 78.9 99.2 79.1 98.9 79.4 98.6 79.7 98.2 80.1 97.8 80.5 97.4L81.6 96.3C82 95.8 82.5 95.3 83 94.8 83.5 94.3 84 93.8 84.5 93.3 85.1 92.6 85.8 91.9 86.5 91.1 87.1 90.4 87.8 89.6 88.4 88.8 88.4 88.7 88.5 88.7 88.5 88.6 88.5 88.6 88.5 88.6 88.6 88.5 89.6 87.3 89.2 87.9 89.9 86.9 89.8 84.4 89.8 85.6 90.1 83.4 90.2 82.9 90.3 82.4 90.3 82 90.4 81.6 90.4 81.1 90.6 80.7L91.4 77.9C91.6 77.4 91.8 76.8 92 76.3 92.2 75.7 92.4 75.2 92.5 74.6 93.1 72.4 94.1 70.5 95.7 68.7 96.1 68.2 96.6 67.6 97.1 67 97.5 66.5 97.9 66.1 98.4 65.8 98.9 65.5 99.5 65.2 100 65.1L102.2 64.2C102.9 64 103.5 63.9 104.2 63.8 104.8 63.8 105.4 63.7 106.1 63.6 106.5 63.6 106.7 63.6 106.9 63.5 107.5 63.3 108 63.3 108.5 63.3 109 63.3 109.6 63.4 110.1 63.5 110.5 63.6 110.9 63.7 111.2 64 111.6 64.3 111.9 64.6 112.2 65 112.4 65.3 112.6 65.6 112.8 65.8 113 66.1 113.2 66.4 113.3 66.7 113.8 67.7 113.7 68.6 112.9 69.4 112.7 69.5 112.4 69.6 112 69.6 111.8 69.7 111.6 69.5 111.5 69.2 111.4 68.4 111.1 67.8 110.7 67.3 110.2 66.8 109.8 66.3 109.3 65.7L109 65.4C107.9 65.1 106.9 65 105.9 65.2 105.1 65.4 104.3 65.7 103.6 66.1 102.8 66.4 102.2 67 101.7 67.8 101.1 69 100.5 70.2 100.1 71.5 99.7 72.8 99.2 74.1 98.7 75.3L97.5 78.9C97 80.4 96.6 81.8 96.3 83.2 96.1 84.6 96.1 86.1 96.5 87.6 96.7 88.4 97.2 89.1 98.2 89.7 99.2 90.2 100 90.3 100.8 89.9 101.9 89.5 102.8 88.6 103.7 87.2 104.6 85.9 105.3 84.7 105.8 83.8 106 83.4 106.1 83.1 106.1 82.7 106.2 82.4 106.3 82 106.4 81.7 106.5 81.3 106.6 80.9 106.7 80.5 106.7 80.1 106.8 79.8 106.9 79.5 107.1 78.9 107.2 78.4 107.4 77.8 107.6 77.3 107.8 76.7 108 76.2 108.2 75.6 108.4 75 108.6 74.5 108.8 73.9 109 73.3 109.1 72.7 109.4 71.8 109.9 71.2 110.7 71.2 111 71.1 111.2 71 111.5 70.9 111.8 70.9 112.1 70.9 112.4 70.8 113.1 70.7 113.6 71.1 113.7 71.7L114 72.3C114.1 72.8 114.1 73.2 113.8 73.6 113.6 74 113.6 74.4 113.8 74.9 113.9 75.2 113.9 75.4 113.9 75.6 113.9 75.8 113.8 76 113.8 76.3 113.8 77.3 113.7 78.3 113.4 79.5 113.2 80.7 112.9 81.8 112.7 82.7 112.6 83.8 112.4 84.8 112.4 85.7 112.3 86.5 112.2 87.5 112 88.6 111.9 88.9 111.8 89.3 111.7 89.6 111.7 90 111.6 90.3 111.6 90.7 111.4 91.3 111.4 92 111.3 92.7 111.2 93.4 111.1 94.1 111 94.9 111 95.2 110.9 95.5 110.9 95.7 110.9 96 110.8 96.3 110.8 96.6 110.8 96.8 110.8 97.1 110.7 97.7 110.7 98.2 110.7 98.7 110.7 99.2 110.7 99.7 110.9 100.1 111.2 100.4 111.4 100.7 111.9 100.6 112.6 100.3 112.9 100.2 113.5 99.7 114.2 99 115 98.3 115.5 97.8 115.8 97.5 116.2 96.8 116.8 96 117.5 95 118.1 94 118.7 93.1 119 92.3 119.8 90.8 120.6 89 121.5 86.9 122.5 84.8 123.3 83 124 81.5 124.1 81.2 124.2 81 124.2 80.7 124.2 80.5 124.2 80.5 124.3 80.5 124.5 79 124.3 80 124.8 77.5 124.9 76.4 125.1 75.3 125.1 74.1 125.2 73 125.4 71.9 125.7 70.8 126 69.6 126.2 68.4 126.5 67.1 126.7 65.9 127 64.6 127.2 63.4 127.3 63.1 127.3 62.7 127.3 62.3L127.3 61.2C127.3 60.9 127.4 60.7 127.8 60.7 128 60.6 128.3 60.6 128.6 60.7 128.8 60.7 128.9 60.7 129.1 60.7 129.2 60.8 129.4 60.8 129.6 60.8 130.3 60.9 130.8 61.2 131.2 61.6 131.4 61.8 131.7 62 132 62.1 132.3 62.3 132.5 62.6 132.5 63L132.5 64.6C132.5 65.2 132.7 65.8 133 66.3 133.5 66.9 133.7 67.5 133.6 68.3 133.5 69 133.3 69.7 133.2 70.4 133 71.3 132.8 72.3 132.8 73.3 132.8 74.2 132.7 75.2 132.6 76.2 132.5 77.3 132.4 78.4 132.3 79.5 132.3 80.6 132.3 81.8 132.2 82.9 132.2 83.1 132.1 83.4 132 83.9 131.9 84.2 131.8 84.6 131.8 85.1L131.8 86.8C131.9 86.6 132 86.6 132 86.6 132 86.6 132.1 86.5 132.1 86.5 132.4 86 132.6 85.5 132.8 85 133 84.5 133.3 84.1 133.6 83.6 133.9 83.1 134.1 82.6 134.3 82.2 134.6 81.8 134.8 81.4 135.1 80.9 135.7 80.1 136.2 79.2 136.7 78.4 137.1 77.5 137.6 76.6 138.1 75.7 138.3 75.4 138.5 75.1 138.7 74.8 138.8 74.4 139.1 74.1 139.3 73.8L140.5 72C140.7 71.6 140.9 71.4 141.1 71.2L143.6 68.4C143.9 68 144.3 67.6 144.8 67.3 145.2 67 145.6 66.6 146.1 66.3 146.7 66 147.2 65.7 147.7 65.2 148 65 148.4 64.9 148.9 64.9L149.3 64.9C149.7 64.9 150.1 64.9 150.5 64.8 150.9 64.7 151.3 64.8 151.8 65.1L152.9 65.6C153.2 65.8 153.6 66 153.9 66.3 154.2 66.3 154.5 66.5 154.9 66.8 154.9 67.3 154.9 67.8 154.9 68.1 154.9 68.3 155 68.5 155.1 68.7 155.2 68.9 155.2 69.1 155.2 69.4 155.3 69.9 155.4 70.4 155.4 71 155.3 71.5 155.2 72.1 155.1 72.6 155.1 73.3 155 73.9 154.9 74.5 154.9 75.1 154.8 75.7 154.7 76.3 154.5 76.8 154.5 77.2 154.4 77.6 154.4 78.1 154.3 78.5 154.2 78.9 154.2 79.1 154.2 79.3 154 79.4 153.9 79.6 153.7 80 153.6 80.7 153.6 80.8 153.5 81.1 153.4 81.6 153.4 81.8 153.4 82 153.3 82.1 153.5 82.1 153.6 82 153.8 81.8 154.3 81 154.8 80.1 155.4 79.2 155.9 78.3 156.4 77.4 156.9 76.6 157 76.4 157.1 76.3 157.1 76.2 157.2 76.1 157.3 75.9 157.4 75.8 158.1 75 158.7 74.2 159.2 73.4 159.8 72.6 160.4 71.8 161 70.9 161.2 70.8 161.2 70.6 161.3 70.5 161.4 70.3 161.5 70.2 161.6 70.1 162.4 68.6 163.5 67.2 164.9 65.9 165.4 65.4 165.9 64.9 166.4 64.3 167 63.8 167.5 63.3 168 62.8 169.1 61.8 170.1 61 171.1 60.5L171.8 60.2C171.9 60.1 172.1 60 172.3 59.9L172.9 59.6 173.6 59.6zM211.6 103.1C211.5 103.2 211.4 103.3 211.3 103.3 211.3 103.3 211.2 103.4 211.1 103.5L209.8 106.5C209.8 106.8 209.8 107.1 209.9 107.2 209.9 107.3 209.9 107.4 210 107.4L210 107.5C210.7 107.1 211.2 106.4 211.5 105.5 211.8 104.6 211.8 103.8 211.6 103.1zM290.3 38.7L251.6 38.7 251.6 48.4 290.3 48.4 290.3 38.7zM241.9 38.7L203.2 38.7 203.2 48.4 241.9 48.4 241.9 38.7zM183.9 38.7L145.2 38.7 145.2 48.4 183.9 48.4 183.9 38.7zM87.1 38.7L77.4 38.7 77.4 48.4 87.1 48.4 87.1 38.7zM125.8 38.7L116.1 38.7 116.1 48.4 125.8 48.4 125.8 38.7zM67.7 19.4L58.1 19.4 58.1 48.4 67.7 48.4 67.7 19.4zM38.5 0L0 0 0 48.1 9.6 48.1 9.6 38.5 38.5 38.5 38.5 28.9 9.6 28.9 9.6 9.6 38.5 9.6 38.5 0zM300 29L290.3 29 290.3 38.7 300 38.7 300 29zM203.2 0L193.5 0 193.5 38.7 203.2 38.7 203.2 0zM145.2 9.7L135.5 9.7 135.5 38.7 145.2 38.7 145.2 29 174.2 29 174.2 19.4 145.2 19.4 145.2 9.7zM96.8 29L87.1 29 87.1 38.7 96.8 38.7 96.8 29zM116.1 29L106.5 29 106.5 38.7 116.1 38.7 116.1 29zM290.3 19.4L261.3 19.4 261.3 29 290.3 29 290.3 19.4zM106.5 19.4L96.8 19.4 96.8 29 106.5 29 106.5 19.4zM48.1 9.6L38.5 9.6 38.5 28.9 48.1 28.9 48.1 9.6zM261.3 9.7L251.6 9.7 251.6 19.4 261.3 19.4 261.3 9.7zM183.9 9.7L174.2 9.7 174.2 19.4 183.9 19.4 183.9 9.7zM96.8 9.7L87.1 9.7 87.1 19.4 96.8 19.4 96.8 9.7zM116.1 9.7L106.5 9.7 106.5 19.4 116.1 19.4 116.1 9.7zM300 0L261.3 0 261.3 9.7 300 9.7 300 0zM174.2 0L145.2 0 145.2 9.7 174.2 9.7 174.2 0zM87.1 0L77.4 0 77.4 9.7 87.1 9.7 87.1 0zM125.8 0L116.1 0 116.1 9.7 125.8 9.7 125.8 0zM67.7 0L58.1 0 58.1 9.7 67.7 9.7 67.7 0z" fill="#FFFFFF"/></svg>